#!OML:ASF Y:\EmotionMaleHayes\Project 1\Capture day 1\Session 1\Male1.ASF
:FULLY-SPECIFIED
:DEGREES
413
root 33.3651 15.1064 -11.806 18.2749 27.415 -355.884
lowerback 26.6032 5.25847 -3.40616
upperback 6.23052 5.78262 -1.79621
thorax -7.86194 2.84471 -1.93349
lowerneck -21.3012 -4.17391 -6.93428
upperneck 14.3485 -3.69805 0.732065
head 8.07693 -2.06586 0.878361
rclavicle -3.61788e-014 3.97569e-014
rhumerus -21.3843 35.8825 -100.586
rradius 75.4306
rwrist -2.35236
rhand -25.6784 -23.6309
rfingers 7.12502
rthumb 0.856339 -53.6089
lclavicle -3.61788e-014 3.97569e-014
lhumerus -30.563 -14.2382 56.1784
lradius 130.43
lwrist 13.9341
lhand -19.8051 -45.5016
lfingers 7.12502
lthumb 6.52801 -15.6222
rfemur -8.19362 -2.41291 5.76086
rtibia 86.3689
rfoot 147.39 65.6493
rtoes -8.00726
lfemur -45.5264 -2.66924 -1.55034
ltibia 56.4887
lfoot -25.7547 0.858903
ltoes -19.8757
414
root 33.4272 14.9964 -11.7602 18.5516 28.9608 -354.813
lowerback 26.6035 5.52552 -3.82619
upperback 6.95639 6.06977 -1.6603
thorax -7.10416 3.00005 -1.5966
lowerneck -20.775 -4.5507 -7.01536
upperneck 13.1806 -4.26967 0.917489
head 7.62366 -2.30787 0.894461
rclavicle 3.81667e-014 -5.64548e-014
rhumerus -20.8476 34.4871 -100.261
rradius 74.803
rwrist -0.0515253
rhand -27.4147 -22.9997
rfingers 7.12502
rthumb -0.820579 -52.9779
lclavicle 3.81667e-014 -5.64548e-014
lhumerus -28.9007 -11.5539 53.2985
lradius 131.405
lwrist 12.7526
lhand -20.9637 -47.7145
lfingers 7.12502
lthumb 5.4094 -17.8035
rfemur -8.13244 -3.98289 7.54719
rtibia 82.4657
rfoot 160.078 40.5086
rtoes -6.88632
lfemur -46.5602 -3.73232 -2.46563
ltibia 57.9248
lfoot -26.2539 0.460775
ltoes -20.6322
415
root 33.4933 14.9046 -11.705 18.7599 30.2166 -354.355
lowerback 27.336 6.07534 -4.15317
upperback 6.9521 6.67126 -1.3305
thorax -7.54664 3.28562 -1.32205
lowerneck -20.1726 -4.93357 -7.48254
upperneck 12.6052 -4.81284 1.50741
head 7.38059 -2.52828 1.10901
rclavicle 1.51076e-014 -1.59028e-015
rhumerus -21.668 32.4865 -100.331
rradius 74.2663
rwrist 1.52694
rhand -29.7317 -23.6413
rfingers 7.12502
rthumb -3.05836 -53.5991
lclavicle 1.51076e-014 -1.59028e-015
lhumerus -28.0234 -9.45552 50.543
lradius 131.658
lwrist 10.047
lhand -23.7522 -50.4306
lfingers 7.12502
lthumb 2.7167 -20.4682
rfemur -8.49815 -5.53731 10.0531
rtibia 78.2095
rfoot 165.025 15.0059
rtoes -5.65071
lfemur -47.1582 -4.73612 -2.63978
ltibia 58.703
lfoot -26.7769 0.577091
ltoes -23.5885
416
root 33.5716 14.8182 -11.6388 19.172 31.478 -354.084
lowerback 27.1577 6.37114 -4.31046
upperback 7.15872 7.06646 -0.938298
thorax -7.30376 3.47835 -0.907689
lowerneck -20.0251 -5.13239 -8.16591
upperneck 12.2839 -5.03747 2.27203
head 7.29847 -2.59321 1.44536
rclavicle 5.32743e-014 -1.27222e-014
rhumerus -22.2936 30.7826 -100.128
rradius 73.7118
rwrist 2.70466
rhand -31.6862 -25.5115
rfingers 7.12502
rthumb -4.94576 -55.4337
lclavicle 5.32743e-014 -1.27222e-014
lhumerus -27.4075 -6.52086 47.6519
lradius 131.38
lwrist 6.92558
lhand -26.931 -50.8074
lfingers 7.12502
lthumb -0.353406 -20.828
rfemur -9.09942 -7.53857 12.717
rtibia 74.8247
rfoot 165.148 13.8641
rtoes -5.36817
lfemur -47.8168 -5.79566 -2.55479
ltibia 59.2942
lfoot -27.2308 1.76638
ltoes -31.574
417
root 33.6622 14.7372 -11.5661 19.7687 32.5038 -353.537
lowerback 26.6413 6.57785 -4.67822
upperback 7.35609 7.29076 -0.846745
thorax -6.89025 3.59375 -0.615179
lowerneck -19.2995 -5.10925 -7.94017
upperneck 11.7047 -5.15193 2.38665
head 6.99113 -2.62574 1.45078
rclavicle -8.18993e-014 1.27222e-014
rhumerus -23.2068 28.9707 -100.367
rradius 72.7802
rwrist 2.60403
rhand -31.978 -20.2465
rfingers 7.12502
rthumb -5.22747 -50.162
lclavicle -8.18993e-014 1.27222e-014
lhumerus -27.3174 -3.29102 44.1678
lradius 130.573
lwrist 3.56935
lhand -28.7354 -52.8496
lfingers 7.12502
lthumb -2.09612 -22.8801
rfemur -9.73448 -9.28032 15.2493
rtibia 72.0797
rfoot 165.156 13.9056
rtoes -5.77372
lfemur -48.3312 -6.95483 -2.77719
ltibia 59.8336
lfoot -27.5546 3.14148
ltoes -37.494
418
root 33.7697 14.6668 -11.4895 19.9943 33.1049 -353.041
lowerback 26.4361 6.86426 -4.57426
upperback 7.65571 7.70328 -1.00465
thorax -6.43182 3.79671 -0.935693
lowerneck -18.9315 -5.23655 -7.93335
upperneck 11.4399 -5.4516 2.95081
head 6.87537 -2.71948 1.60658
rclavicle 9.30312e-014 -1.59028e-014
rhumerus -24.0869 26.9265 -100.524
rradius 71.8208
rwrist 1.68685
rhand -34.0642 -20.4946
rfingers 7.12502
rthumb -7.24151 -50.3506
lclavicle 9.30312e-014 -1.59028e-014
lhumerus -27.0347 -0.261782 40.5195
lradius 129.034
lwrist 0.206924
lhand -30.2564 -54.0768
lfingers 7.12502
lthumb -3.56508 -24.1269
rfemur -9.86592 -11.5403 16.8405
rtibia 69.7143
rfoot 164.969 14.2744
rtoes -4.72367
lfemur -48.1366 -8.3235 -3.13807
ltibia 60.182
lfoot -28.1113 3.58117
ltoes -37.7405
419
root 33.8658 14.5904 -11.4201 20.4162 33.6199 -352.391
lowerback 26.0913 7.14034 -4.16688
upperback 7.9487 8.17401 -1.3804
thorax -5.8382 4.03522 -1.65285
lowerneck -18.4535 -5.71025 -8.33153
upperneck 11.0145 -6.20374 4.05071
head 6.74889 -3.00433 1.94878
rclavicle -7.15625e-015 -8.26944e-014
rhumerus -24.7124 24.3407 -100.532
rradius 70.4213
rwrist 0.667941
rhand -35.8577 -20.857
rfingers 7.12502
rthumb -8.97246 -50.6462
lclavicle -7.15625e-015 -8.26944e-014
lhumerus -26.3017 1.78324 37.1903
lradius 126.933
lwrist -2.21564
lhand -31.6132 -54.4785
lfingers 7.12502
lthumb -4.87524 -24.5545
rfemur -9.92928 -13.9267 18.3803
rtibia 67.7677
rfoot 164.484 14.8029
rtoes -3.44578
lfemur -48.0832 -9.55611 -3.65209
ltibia 60.6333
lfoot -28.8888 3.77029
ltoes -37.6815
420
root 33.977 14.5212 -11.3556 21.0868 33.954 -351.243
lowerback 25.6822 7.34115 -4.62504
upperback 8.17466 8.35077 -1.58641
thorax -5.41566 4.13033 -1.61415
lowerneck -17.8142 -5.6578 -8.39115
upperneck 10.7088 -6.19902 4.24338
head 6.55348 -2.99473 2.03625
rclavicle 9.54166e-015 -1.43125e-014
rhumerus -25.867 22.6032 -100.313
rradius 68.6146
rwrist -0.360971
rhand -37.1821 -21.9559
rfingers 7.12502
rthumb -10.2503 -51.6862
lclavicle 9.54166e-015 -1.43125e-014
lhumerus -26.5904 3.99433 34.0218
lradius 124.278
lwrist -3.90078
lhand -31.6324 -55.6494
lfingers 7.12502
lthumb -4.89375 -25.726
rfemur -10.451 -16.1951 19.3503
rtibia 66.0049
rfoot 164.011 15.0566
rtoes -2.30802
lfemur -47.9893 -11.0752 -4.74165
ltibia 61.0321
lfoot -29.5864 4.26403
ltoes -38.5011
421
root 34.0832 14.4675 -11.2953 22.3713 34.0077 -349.381
lowerback 25.3023 7.59742 -5.65456
upperback 8.21617 8.44446 -1.97184
thorax -5.25531 4.18153 -1.45184
lowerneck -17.2069 -5.61765 -8.5611
upperneck 10.5752 -6.18945 4.4677
head 6.42364 -2.9859 2.14973
rclavicle -7.95139e-015 6.36111e-015
rhumerus -27.4376 20.6518 -99.9857
rradius 66.9936
rwrist -1.26546
rhand -37.7239 -24.6279
rfingers 7.12502
rthumb -10.773 -54.3316
lclavicle -7.95139e-015 6.36111e-015
lhumerus -27.1169 5.39432 31.0326
lradius 121.233
lwrist -5.13037
lhand -31.6993 -54.3862
lfingers 7.12502
lthumb -4.95838 -24.4643
rfemur -11.0532 -19.3735 19.0235
rtibia 64.5223
rfoot 164.078 15.5972
rtoes -4.69815
lfemur -48.0574 -12.7395 -6.48407
ltibia 61.1992
lfoot -30.111 4.20241
ltoes -37.7385
422
root 34.1749 14.4414 -11.237 23.9445 34.0889 -347.278
lowerback 25.1816 7.7712 -6.85581
upperback 8.03095 8.35872 -2.39533
thorax -5.48158 4.14529 -1.23585
lowerneck -16.4504 -5.35927 -8.63431
upperneck 10.3687 -5.92269 4.70408
head 6.22586 -2.85006 2.28388
rclavicle 6.99722e-014 -5.725e-014
rhumerus -29.2511 18.6637 -99.584
rradius 65.0845
rwrist -1.96386
rhand -37.646 -27.3531
rfingers 7.12502
rthumb -10.6978 -57.0607
lclavicle 6.99722e-014 -5.725e-014
lhumerus -27.8774 5.9799 28.3115
lradius 117.731
lwrist -6.23623
lhand -31.5158 -54.267
lfingers 7.12502
lthumb -4.78122 -24.3409
rfemur -12.6061 -22.246 18.9839
rtibia 62.7469
rfoot 163.655 15.4432
rtoes -3.03966
lfemur -48.2462 -14.3111 -8.39954
ltibia 61.0998
lfoot -30.373 4.30025
ltoes -37.1136
423
root 34.2548 14.4458 -11.1769 25.3363 34.4739 -345.74
lowerback 25.257 7.78743 -7.44431
upperback 7.70292 8.19352 -2.67733
thorax -5.90492 4.07367 -1.21004
lowerneck -16.2017 -5.2384 -8.58529
upperneck 10.8359 -5.78114 4.55853
head 6.31948 -2.7971 2.24743
rclavicle 8.90555e-014 -5.08889e-014
rhumerus -30.8759 16.5392 -98.8868
rradius 62.5912
rwrist -2.58377
rhand -37.8601 -26.9706
rfingers 7.12502
rthumb -10.9043 -56.6675
lclavicle 8.90555e-014 -5.08889e-014
lhumerus -28.5655 6.01135 25.899
lradius 113.743
lwrist -7.06303
lhand -30.9392 -53.0261
lfingers 7.12502
lthumb -4.22441 -23.0883
rfemur -14.6617 -24.9436 19.7315
rtibia 61.23
rfoot 163.359 15.1607
rtoes -1.55907
lfemur -48.5631 -15.4984 -9.66821
ltibia 60.8196
lfoot -30.4743 4.11838
ltoes -36.1852
424
root 34.3257 14.4747 -11.1179 26.4798 35.1961 -344.605
lowerback 25.4012 7.66414 -7.36742
upperback 7.52475 8.02457 -2.81028
thorax -6.13826 3.99912 -1.37432
lowerneck -16.3296 -5.14804 -8.31758
upperneck 11.3567 -5.63129 3.99306
head 6.47334 -2.76064 2.03431
rclavicle 1.59028e-014 -8.26944e-014
rhumerus -32.212 14.4134 -97.6892
rradius 59.9908
rwrist -3.32783
rhand -38.273 -25.4081
rfingers 7.12502
rthumb -11.3025 -55.0836
lclavicle 1.59028e-014 -8.26944e-014
lhumerus -28.889 5.72893 24.042
lradius 109.391
lwrist -8.05576
lhand -30.3923 -50.2022
lfingers 7.12502
lthumb -3.69635 -20.2545
rfemur -16.7556 -27.5831 20.8322
rtibia 60.1856
rfoot 163.372 14.559
rtoes 1.88845
lfemur -48.78 -16.5155 -10.4509
ltibia 60.2905
lfoot -30.3708 3.51973
ltoes -34.8654
